<svg xmlns="http://www.w3.org/2000/svg" version="1.1" xmlns:xlink="http://www.w3.org/1999/xlink" xmlns:svgjs="http://svgjs.dev/svgjs" width="2000" height="409" viewBox="0 0 2000 409"><g transform="matrix(1,0,0,1,-1.2121212121212466,0.5838701306222163)"><svg viewBox="0 0 396 81" data-background-color="#ffffff" preserveAspectRatio="xMidYMid meet" height="409" width="2000" xmlns="http://www.w3.org/2000/svg" xmlns:xlink="http://www.w3.org/1999/xlink"><g id="tight-bounds" transform="matrix(1,0,0,1,0.2400000000000091,-0.1156319818591669)"><svg viewBox="0 0 395.52 81.23126396371832" height="81.23126396371832" width="395.52"><g><svg viewBox="0 0 634.6845374391542 130.3504935133758" height="81.23126396371832" width="395.52"><g><rect width="8.505891481002557" height="94.79178435668788" x="417.78673162566105" y="17.779354578343955" fill="#c12626" opacity="1" stroke-width="0" stroke="transparent" fill-opacity="1" class="rect-yte-0" data-fill-palette-color="primary" rx="1%" id="yte-0" data-palette-color="#c12626"></rect></g><g transform="matrix(1,0,0,1,0,18.01515503694268)"><svg viewBox="0 0 395.5199999999999 94.32018343949044" height="94.32018343949044" width="395.5199999999999"><g id="textblocktransform"><svg viewBox="0 0 395.5199999999999 94.32018343949044" height="94.32018343949044" width="395.5199999999999" id="textblock"><g><svg viewBox="0 0 395.5199999999999 94.32018343949044" height="94.32018343949044" width="395.5199999999999"><g transform="matrix(1,0,0,1,0,0)"><svg width="395.5199999999999" viewBox="1.49 -37.16 192.07 45.699999999999996" height="94.32018343949044" data-palette-color="#c12626"><g class="wordmark-text-0" data-fill-palette-color="primary" id="text-0"><path d="M12.5-24.76L12.5-24.76Q12.45-24.29 12.33-23.9 12.21-23.51 12.21-22.95L12.21-22.95Q12.21-22.24 12.26-21.51 12.3-20.78 12.3-20.14L12.3-20.14Q12.3-19.48 12.17-19.07 12.04-18.65 11.83-18.35 11.62-18.04 11.38-17.77 11.13-17.5 10.93-17.14 10.72-16.77 10.58-16.21 10.45-15.65 10.45-14.79L10.45-14.79Q10.45-13.06 10.55-11.22 10.64-9.38 10.64-7.3L10.64-7.3Q10.64-6.62 10.58-6.01 10.52-5.4 10.42-4.8 10.33-4.2 10.19-3.6 10.06-3 9.91-2.34L9.91-2.34Q9.74-1.59 9.59-1.01 9.45-0.44 9.12-0.05 8.79 0.34 8.17 0.55 7.54 0.76 6.45 0.76L6.45 0.76Q5.64 0.76 5.27 0.4 4.91 0.05 4.72-0.52 4.54-1.1 4.42-1.82 4.3-2.54 4-3.3L4-3.3Q3.81-3.74 3.59-3.99 3.37-4.25 3.19-4.53 3-4.81 2.88-5.24 2.76-5.66 2.76-6.45L2.76-6.45Q2.76-7.08 2.82-7.81 2.88-8.54 2.95-9.31 3.03-10.08 3.09-10.88 3.15-11.67 3.15-12.45L3.15-12.45Q3.15-13.13 3.05-13.65 2.95-14.16 2.84-14.62 2.73-15.09 2.64-15.59 2.54-16.09 2.54-16.8L2.54-16.8Q2.54-17.48 2.62-17.9 2.71-18.31 2.82-18.63 2.93-18.95 3.02-19.24 3.1-19.53 3.1-19.95L3.1-19.95Q3.1-20.39 2.84-20.79 2.59-21.19 2.28-21.56 1.98-21.92 1.73-22.28 1.49-22.63 1.54-22.95L1.54-22.95Q1.54-23.14 1.61-23.41 1.68-23.68 1.77-23.99 1.86-24.29 1.93-24.6 2-24.9 2-25.2L2-25.2Q2-26.2 1.75-27.12 1.49-28.05 1.49-28.91L1.49-28.91Q1.49-29.03 1.49-29.15 1.49-29.27 1.54-29.39L1.54-29.39Q1.59-29.69 1.86-30.16 2.12-30.64 2.47-31.09 2.81-31.54 3.15-31.87 3.49-32.2 3.66-32.2L3.66-32.2Q3.81-32.2 3.94-32.18 4.08-32.15 4.2-32.15L4.2-32.15Q4.69-32.15 5.46-32.25 6.23-32.35 7.06-32.35L7.06-32.35Q7.67-32.35 8.28-32.31 8.89-32.28 9.41-32.2 9.94-32.13 10.34-32.01 10.74-31.88 10.96-31.69L10.96-31.69Q11.04-31.64 11.24-31.23 11.45-30.81 11.69-30.31 11.94-29.81 12.12-29.36 12.3-28.91 12.35-28.76L12.35-28.76Q12.43-28.34 12.49-27.59 12.55-26.83 12.55-26L12.55-26Q12.55-25.71 12.52-25.38 12.5-25.05 12.5-24.76ZM47.7-6.2L47.7-6.05Q47.56-5.57 47.15-5.26 46.75-4.96 46.18-4.79 45.6-4.61 44.93-4.55 44.26-4.49 43.6-4.49L43.6-4.49 43.04-4.49Q42.97-4.49 42.62-4.47 42.28-4.44 41.94-4.44L41.94-4.44Q41.28-4.44 40.96-4.69 40.65-4.93 40.5-5.31 40.35-5.69 40.29-6.13 40.23-6.57 40.09-6.96L40.09-6.96Q40.04-7.08 39.88-7.37 39.72-7.67 39.52-8 39.33-8.33 39.18-8.65 39.04-8.98 39.04-9.2L39.04-9.2Q39.04-9.47 39.18-9.83 39.33-10.18 39.49-10.57 39.65-10.96 39.79-11.35 39.94-11.74 39.94-12.06L39.94-12.06Q39.94-12.43 39.87-12.99 39.79-13.55 39.79-13.89L39.79-13.89Q39.79-14.72 39.87-15.52 39.94-16.31 39.94-16.94L39.94-16.94Q39.94-17.7 39.68-18.18 39.43-18.65 38.6-18.65L38.6-18.65Q37.64-18.65 36.97-18.16 36.3-17.68 35.89-17.05 35.47-16.43 35.29-15.87 35.1-15.31 35.1-15.16L35.1-15.16Q35.1-14.62 35.23-13.99 35.35-13.35 35.52-12.65 35.69-11.94 35.86-11.17 36.03-10.4 36.11-9.59L36.11-9.59Q36.23-8.23 36.29-6.75 36.35-5.27 36.35-4.1L36.35-4.1Q36.35-3.25 36.06-2.48 35.76-1.71 34.98-1.25L34.98-1.25Q34.69-1.05 34.25-1.04 33.81-1.03 33.44-0.95L33.44-0.95Q33.23-0.9 32.79-0.77 32.35-0.63 31.81-0.51 31.27-0.39 30.69-0.29 30.1-0.2 29.59-0.2L29.59-0.2Q29.03-0.2 28.73-0.29 28.44-0.39 28.27-0.59 28.1-0.78 27.96-1.06 27.83-1.34 27.59-1.71L27.59-1.71Q27.37-2.03 27.15-2.26 26.93-2.49 26.74-2.7 26.56-2.91 26.45-3.16 26.34-3.42 26.34-3.81L26.34-3.81Q26.34-4.37 26.51-4.88 26.68-5.4 26.68-6.01L26.68-6.01Q26.68-6.57 26.63-7.19 26.58-7.81 26.51-8.45 26.44-9.08 26.39-9.69 26.34-10.3 26.34-10.84L26.34-10.84Q26.34-11.04 26.36-11.39 26.39-11.74 26.39-12.21L26.39-12.21Q26.39-13.23 26.22-13.75 26.05-14.26 25.34-14.26L25.34-14.26Q25.02-14.26 24.66-14.16 24.29-14.06 23.94-13.93 23.58-13.79 23.28-13.66 22.97-13.53 22.8-13.45L22.8-13.45Q22.41-13.28 21.97-13.09 21.53-12.89 21.16-12.61 20.8-12.33 20.57-11.9 20.33-11.47 20.33-10.84L20.33-10.84Q20.33-10.52 20.43-10.16 20.53-9.79 20.66-9.4 20.8-9.01 20.9-8.62 20.99-8.23 20.99-7.86L20.99-7.86Q20.99-7.69 20.97-7.54 20.94-7.4 20.94-7.25L20.94-7.25Q20.94-6.84 21.09-6.46 21.24-6.08 21.42-5.74 21.6-5.4 21.75-5.09 21.9-4.79 21.9-4.54L21.9-4.54Q21.9-3.25 21.86-2.23 21.82-1.22 21.57-0.52 21.31 0.17 20.77 0.54 20.24 0.9 19.24 0.9L19.24 0.9Q18.99 0.9 18.48 0.82 17.97 0.73 17.39 0.6 16.82 0.46 16.34 0.27 15.87 0.07 15.7-0.15L15.7-0.15Q15.62-0.29 15.54-0.65 15.45-1 15.37-1.46 15.28-1.93 15.23-2.44 15.18-2.95 15.18-3.44L15.18-3.44Q15.18-4 15.37-4.36 15.55-4.71 15.55-5.1L15.55-5.1Q15.55-5.4 15.51-5.8 15.48-6.2 15.44-6.64 15.4-7.08 15.38-7.52 15.35-7.96 15.35-8.35L15.35-8.35Q15.35-8.59 15.45-9.16 15.55-9.72 15.67-10.45 15.79-11.18 15.89-12 15.99-12.82 15.99-13.6L15.99-13.6Q15.99-15.11 15.89-16.5 15.79-17.9 15.79-19.24L15.79-19.24Q15.79-19.92 15.81-20.63 15.82-21.34 16-21.92 16.18-22.51 16.61-22.88 17.04-23.24 17.84-23.24L17.84-23.24Q18.45-23.24 18.93-23.11 19.41-22.97 19.74-22.58 20.07-22.19 20.22-21.52 20.38-20.85 20.38-19.75L20.38-19.75Q20.38-19.12 20.29-18.52 20.19-17.92 20.19-17.14L20.19-17.14Q21.21-17.29 22.07-17.54 22.92-17.8 23.73-18.13 24.53-18.46 25.36-18.81 26.19-19.17 27.15-19.46L27.15-19.46Q27.78-19.65 28.38-19.85 28.98-20.04 29.54-20.04L29.54-20.04Q30.08-20.04 30.5-19.86 30.93-19.68 31.28-19.47 31.64-19.26 31.92-19.08 32.2-18.9 32.49-18.9L32.49-18.9Q32.81-18.9 33.04-19.14 33.27-19.38 33.47-19.74 33.66-20.09 33.88-20.52 34.1-20.95 34.41-21.3 34.71-21.66 35.14-21.9 35.57-22.14 36.2-22.14L36.2-22.14Q36.62-22.14 37.07-22.12 37.52-22.09 37.94-22.09L37.94-22.09Q38.62-22.09 39.44-22.22 40.26-22.34 41.04-22.5 41.82-22.66 42.47-22.78 43.11-22.9 43.41-22.9L43.41-22.9Q43.7-22.9 44.14-22.73 44.58-22.56 45.05-22.06 45.53-21.56 46.01-20.69 46.48-19.82 46.86-18.42 47.24-17.02 47.47-15.04 47.7-13.06 47.7-10.35L47.7-10.35Q47.7-10.06 47.64-9.8 47.58-9.55 47.51-9.3 47.43-9.06 47.37-8.81 47.31-8.57 47.34-8.35L47.34-8.35Q47.34-7.89 47.52-7.25 47.7-6.62 47.7-6.2L47.7-6.2ZM73.26-15.26L73.26-15.26Q73.31-14.7 73.33-14.12 73.36-13.55 73.36-12.94L73.36-12.94Q73.36-11.21 73.19-9.44 73.02-7.67 72.8-6.01L72.8-6.01Q72.72-5.47 72.61-4.92 72.5-4.37 72.5-3.96L72.5-3.96Q72.5-3.05 72.68-2.21 72.85-1.37 72.85-0.66L72.85-0.66Q72.85-0.51 72.65 0 72.46 0.51 72.03 1.05 71.6 1.59 70.93 2.01 70.26 2.44 69.31 2.44L69.31 2.44Q68.21 2.44 67.83 1.81 67.45 1.17 67.45 0.2L67.45 0.2Q67.45-0.49 67.57-1.28 67.7-2.08 67.84-2.91L67.84-2.91Q67.28-2.78 66.73-2.44 66.18-2.1 65.69-1.81L65.69-1.81Q64.62-1.17 63.56-0.46 62.5 0.24 61.25 0.83 60 1.42 58.53 1.81 57.05 2.2 55.15 2.2L55.15 2.2Q55.1 2.2 54.77 2.21 54.44 2.22 54 2.2 53.56 2.17 53.08 2.08 52.61 1.98 52.24 1.76L52.24 1.76Q51.7 1.22 51.2 0.43 50.7-0.37 50.32-1.14 49.95-1.9 49.73-2.49 49.51-3.08 49.51-3.2L49.51-3.2Q49.46-3.32 49.46-3.43 49.46-3.54 49.46-3.66L49.46-3.66Q49.46-4.17 49.53-4.72 49.6-5.27 49.7-5.77 49.8-6.27 49.87-6.63 49.95-6.98 49.95-7.1L49.95-7.1Q49.95-7.71 49.85-8.29 49.75-8.86 49.75-9.55L49.75-9.55Q49.75-9.86 49.79-10.22 49.82-10.57 49.95-10.96L49.95-10.96Q49.95-10.99 50.07-11.28 50.19-11.57 50.35-11.91 50.51-12.26 50.67-12.57 50.83-12.89 50.9-12.94L50.9-12.94Q51.07-13.09 51.36-13.18 51.66-13.28 52.02-13.38 52.39-13.48 52.77-13.57 53.14-13.67 53.51-13.84L53.51-13.84Q54.07-14.11 54.52-14.53 54.98-14.94 55.34-15.09L55.34-15.09Q55.59-15.21 56.01-15.28 56.44-15.36 56.9-15.55L56.9-15.55Q57.22-15.65 57.69-15.83 58.15-16.02 58.67-16.17 59.2-16.33 59.74-16.47 60.27-16.6 60.76-16.65L60.76-16.65Q60.98-16.65 61.31-16.58 61.64-16.5 62.1-16.5L62.1-16.5Q62.45-16.5 62.93-16.65 63.42-16.8 64.11-16.8L64.11-16.8Q64.79-16.8 65.42-16.7 66.06-16.6 66.4-16.6L66.4-16.6Q66.67-16.6 66.73-16.76 66.79-16.92 66.79-17.14L66.79-17.14Q66.79-17.5 66.65-17.99 66.5-18.48 66.3-18.95 66.11-19.41 65.94-19.75 65.77-20.09 65.69-20.19L65.69-20.19Q65.33-20.65 64.88-20.9 64.42-21.14 64.06-21.14L64.06-21.14Q63.67-21.14 63.29-21.04 62.91-20.95 62.45-20.95L62.45-20.95Q62.1-20.95 61.75-21 61.4-21.04 61.05-21.04L61.05-21.04Q60.22-21.04 59.14-20.63 58.05-20.21 56.97-19.68 55.88-19.14 54.91-18.66 53.95-18.19 53.36-18.04L53.36-18.04Q53.05-17.97 52.7-17.91 52.36-17.85 52.05-17.85L52.05-17.85Q51.85-17.85 51.5-18.05 51.14-18.26 50.8-18.58 50.46-18.9 50.2-19.3 49.95-19.7 49.95-20.09L49.95-20.09Q49.95-20.68 50.26-21.06 50.58-21.44 51.04-21.7 51.51-21.97 52.06-22.18 52.61-22.39 53.05-22.66L53.05-22.66Q53.61-23 54.37-23.46 55.12-23.93 55.66-24.34L55.66-24.34Q56.22-24.8 56.46-25.18 56.71-25.56 57.05-25.76L57.05-25.76Q57.39-25.95 58.12-26.12 58.86-26.29 59.49-26.49L59.49-26.49Q59.69-26.56 60.04-26.71 60.4-26.86 60.77-26.98 61.15-27.1 61.51-27.2 61.86-27.29 62.06-27.29L62.06-27.29 62.15-27.29Q62.62-27.12 63.2-27.04 63.79-26.95 64.44-26.88 65.08-26.81 65.73-26.72 66.38-26.64 66.96-26.49L66.96-26.49Q67.16-26.44 67.33-26.28 67.5-26.12 67.7-26.05L67.7-26.05Q68.6-25.78 69.21-25.5 69.82-25.22 70.28-24.62 70.75-24.02 71.15-22.91 71.55-21.8 72.04-19.9L72.04-19.9Q72.14-19.46 72.41-19.09 72.68-18.73 72.8-18.36L72.8-18.36Q72.99-17.75 73.1-16.88 73.21-16.02 73.26-15.26ZM67.4-8.74L67.4-8.74Q67.52-8.86 67.56-9.29 67.6-9.72 67.6-10.25L67.6-10.25Q67.6-10.89 67.57-11.29 67.55-11.69 67.48-11.91 67.4-12.13 67.28-12.22 67.16-12.3 66.96-12.3L66.96-12.3Q66.82-12.3 66.71-12.28 66.6-12.26 66.5-12.23L66.5-12.23Q66.4-12.18 66.3-12.16L66.3-12.16Q65.91-12.21 65.58-12.21 65.25-12.21 64.91-12.21L64.91-12.21Q64.23-12.21 63.65-12.13 63.08-12.06 62.53-11.94 61.98-11.82 61.45-11.67 60.91-11.52 60.3-11.4L60.3-11.4Q59.42-11.18 58.69-11.11 57.95-11.04 57.42-10.82 56.88-10.6 56.59-10.12 56.29-9.64 56.29-8.64L56.29-8.64Q56.29-7.62 56.83-7.26 57.37-6.91 58.39-6.91L58.39-6.91Q58.71-6.91 59.13-7.02 59.54-7.13 60.02-7.28 60.49-7.42 60.99-7.58 61.49-7.74 62.01-7.86L62.01-7.86Q62.37-7.93 62.8-8.02 63.23-8.11 63.65-8.18 64.08-8.25 64.46-8.33 64.84-8.4 65.11-8.45L65.11-8.45Q65.28-8.47 65.64-8.51 66.01-8.54 66.38-8.58 66.74-8.62 67.05-8.65 67.35-8.69 67.4-8.74ZM98.36-4.05L98.36-3.66Q98.31-3.17 98.12-2.67 97.94-2.17 97.89-1.66L97.89-1.66Q97.84-0.46 97.81 0.67 97.77 1.81 97.33 2.89 96.89 3.98 95.83 5 94.77 6.03 92.64 7.01L92.64 7.01Q92.01 7.25 91.14 7.52 90.28 7.79 89.35 8.02 88.42 8.25 87.5 8.4 86.59 8.54 85.86 8.54L85.86 8.54Q85.37 8.54 84.81 8.37 84.25 8.2 83.42 8.2L83.42 8.2Q82.46 8.2 81.45 8.3 80.44 8.4 79.51 8.4L79.51 8.4Q78.41 8.4 77.69 8.12 76.97 7.84 76.54 7.32 76.12 6.81 75.96 6.08 75.8 5.35 75.8 4.44L75.8 4.44Q75.8 3.27 75.83 2.09 75.87 0.9 76.14-0.05 76.41-1 76.98-1.6 77.56-2.2 78.65-2.2L78.65-2.2Q79.46-2.2 80.36-1.92 81.27-1.64 82.13-1.29 83-0.95 83.77-0.67 84.54-0.39 85.1-0.39L85.1-0.39Q85.42-0.39 85.71-0.5 86-0.61 86.3-0.61L86.3-0.61Q86.91-0.54 87.46-0.33 88.01-0.12 88.58 0.1 89.15 0.32 89.8 0.49 90.45 0.66 91.25 0.66L91.25 0.66Q92.28 0.66 92.72 0.12 93.16-0.42 93.16-1.34L93.16-1.34Q93.16-1.9 93.08-2.55 93.01-3.2 93.01-3.96L93.01-3.96Q93.01-4.22 93.03-4.48 93.06-4.74 93.11-5.05L93.11-5.05Q92.25-4.93 91.25-4.81 90.25-4.69 89.13-4.59 88.01-4.49 86.82-4.44 85.64-4.39 84.47-4.39L84.47-4.39Q82.07-4.39 80.33-4.69 78.58-4.98 77.45-5.81 76.31-6.64 75.76-8.08 75.21-9.52 75.21-11.84L75.21-11.84Q75.21-12.77 75.31-13.95 75.41-15.14 75.6-16.3 75.8-17.46 76.13-18.46 76.46-19.46 76.9-20.04L76.9-20.04Q77.39-20.65 78.31-21.36 79.24-22.07 80.41-22.67 81.58-23.27 82.9-23.66 84.22-24.05 85.51-24.05L85.51-24.05Q86.17-24.05 86.88-23.94 87.59-23.83 88.49-23.61L88.49-23.61Q89.76-23.27 90.95-23.12 92.13-22.97 93.25-22.51L93.25-22.51Q93.25-22.71 93.28-22.89 93.3-23.07 93.3-23.29L93.3-23.29Q93.3-23.61 93.28-23.9 93.25-24.19 93.25-24.51L93.25-24.51Q93.25-25 93.3-25.4 93.35-25.81 93.53-26.1 93.72-26.39 94.06-26.55 94.4-26.71 94.96-26.71L94.96-26.71Q95.26-26.71 95.72-26.56 96.18-26.42 96.65-26.23 97.11-26.05 97.47-25.87 97.82-25.68 97.89-25.61L97.89-25.61Q98.06-25.42 98.11-25.02 98.16-24.63 98.16-24.15L98.16-24.15Q98.16-22.41 98.09-20.83 98.01-19.24 98.01-17.65L98.01-17.65Q98.01-16.21 98.04-14.84 98.06-13.48 98.06-12.16L98.06-12.16Q98.06-11.45 98.21-10.77 98.36-10.08 98.36-9.4L98.36-9.4Q98.36-8.69 98.21-8 98.06-7.3 98.06-6.74L98.06-6.74Q98.06-6.03 98.23-5.38 98.41-4.74 98.36-4.05L98.36-4.05ZM93.11-16.5L93.11-16.5Q93.06-17.09 92.89-17.36 92.72-17.63 92.41-17.74 92.11-17.85 91.68-17.88 91.25-17.92 90.67-18.04L90.67-18.04Q90.1-18.16 89.48-18.3 88.86-18.43 88.22-18.55 87.59-18.68 86.98-18.76 86.37-18.85 85.86-18.85L85.86-18.85Q83.78-18.85 82.67-17.92 81.56-16.99 81.56-15.26L81.56-15.26Q81.56-14.89 81.67-14.43 81.78-13.96 82.07-13.57 82.37-13.18 82.87-12.92 83.37-12.65 84.15-12.65L84.15-12.65Q84.61-12.65 85.1-12.72 85.59-12.79 86.05-12.88 86.52-12.96 86.91-13.04 87.3-13.11 87.57-13.11L87.57-13.11Q88.4-13.11 89.41-12.93 90.42-12.74 91.35-12.74L91.35-12.74Q92.11-12.74 92.49-12.79 92.86-12.84 93.01-13.06 93.16-13.28 93.16-13.7 93.16-14.11 93.16-14.84L93.16-14.84Q93.16-15.41 93.13-15.88 93.11-16.36 93.11-16.5ZM108.75-28.44L108.75-28.44Q108.56-27.93 108-27.6 107.44-27.27 106.69-27.08 105.95-26.88 105.12-26.79 104.29-26.71 103.55-26.71L103.55-26.71Q102.28-26.71 101.63-27.34 100.97-27.98 100.97-29.71L100.97-29.71Q100.97-30.4 101.17-30.98 101.38-31.57 101.61-32.06 101.85-32.54 102.05-32.91 102.26-33.28 102.26-33.54L102.26-33.54Q102.55-33.76 103.08-33.95 103.6-34.13 104.14-34.27 104.68-34.4 105.12-34.47 105.56-34.55 105.7-34.55L105.7-34.55Q106.95-34.55 107.75-34.11 108.56-33.67 108.56-33.11L108.56-33.11Q108.56-32.84 108.51-32.53 108.46-32.23 108.46-32.01L108.46-32.01Q108.51-31.37 108.71-30.6 108.9-29.83 108.9-29.2L108.9-29.2Q108.9-28.76 108.75-28.44ZM110.17-1.71L110.17-1.71Q109.98-1.42 109.38-1.09 108.78-0.76 108.02-0.48 107.27-0.2 106.5-0.02 105.73 0.15 105.21 0.15L105.21 0.15Q104.26 0.05 103.6-0.29 102.94-0.63 102.53-1.22 102.11-1.81 101.92-2.59 101.72-3.37 101.65-4.35L101.65-4.35Q101.65-4.83 101.81-5.33 101.97-5.83 101.97-6.45L101.97-6.45Q101.97-7.13 101.87-7.82 101.77-8.52 101.77-9.2L101.77-9.2Q101.77-9.77 101.81-10.64 101.85-11.52 101.92-12.55 101.99-13.57 102.1-14.65 102.21-15.72 102.33-16.67 102.46-17.63 102.6-18.37 102.75-19.12 102.92-19.46L102.92-19.46Q103.33-20.31 103.97-20.7 104.6-21.09 105.36-21.09L105.36-21.09Q106.34-21.09 107-20.7 107.66-20.31 108.06-19.58 108.46-18.85 108.63-17.81 108.8-16.77 108.8-15.5L108.8-15.5Q108.8-14.94 108.75-14.4 108.71-13.87 108.71-13.35L108.71-13.35Q108.71-12.33 108.91-11.33 109.12-10.33 109.38-9.4 109.63-8.47 109.85-7.62 110.07-6.76 110.07-6.05L110.07-6.05Q110.07-5.83 110.05-5.55 110.02-5.27 110.02-5.05L110.02-5.05Q110.02-4.15 110.2-3.58 110.37-3 110.37-2.54L110.37-2.54Q110.37-2.1 110.17-1.71ZM135.22-10.5L135.22-10.5Q135.22-9.67 135.07-8.86 134.92-8.06 134.92-7.3L134.92-7.3Q134.92-6.81 135-6.34 135.07-5.86 135.07-5.4L135.07-5.4Q135.07-5.3 134.97-4.98 134.88-4.66 134.67-4.27 134.46-3.88 134.13-3.5 133.8-3.13 133.36-2.95L133.36-2.95Q133.07-2.83 132.69-2.81 132.31-2.78 131.88-2.77 131.46-2.76 131.01-2.75 130.55-2.73 130.11-2.66L130.11-2.66Q129.5-2.54 129.05-2.39 128.6-2.25 128.11-2.25L128.11-2.25Q127.23-2.25 126.78-2.72 126.33-3.2 126.12-3.91 125.92-4.61 125.87-5.4 125.82-6.18 125.77-6.81L125.77-6.81Q125.7-7.64 125.57-8.26 125.45-8.89 125.4-9.45L125.4-9.45Q125.4-9.79 125.44-10.08 125.48-10.38 125.48-10.64L125.48-10.64Q125.48-11.28 125.4-11.83 125.33-12.38 125.09-12.77 124.84-13.16 124.34-13.38 123.84-13.6 123.01-13.6L123.01-13.6Q122.42-13.6 121.74-13.44 121.06-13.28 120.47-12.94 119.88-12.6 119.49-12.08 119.1-11.57 119.1-10.89L119.1-10.89Q119.1-10.62 119.21-10.3 119.32-9.99 119.32-9.59L119.32-9.59Q119.32-8.91 119.16-8.19 119.01-7.47 119.01-6.81L119.01-6.81Q119.01-5.79 119.16-4.91 119.32-4.03 119.32-3.39L119.32-3.39Q119.32-2.54 119.24-1.9 119.15-1.27 118.91-0.85 118.66-0.44 118.21-0.22 117.76 0 117.05 0L117.05 0Q115.93 0 115.32-0.54 114.71-1.07 114.71-2.2L114.71-2.2Q114.71-2.61 114.73-3.06 114.76-3.52 114.76-4L114.76-4Q114.76-4.66 114.61-5.1 114.47-5.54 114.26-5.96 114.05-6.37 113.82-6.85 113.59-7.32 113.42-8.06L113.42-8.06Q113.37-8.13 113.37-8.23 113.37-8.33 113.37-8.45L113.37-8.45Q113.37-8.72 113.39-9.07 113.42-9.42 113.42-9.79L113.42-9.79Q113.42-10.77 113.29-11.89 113.17-13.01 113.01-14.18 112.85-15.36 112.73-16.49 112.61-17.63 112.61-18.65L112.61-18.65Q112.61-19.56 113-20.14 113.39-20.73 114-21.07 114.61-21.41 115.34-21.53 116.08-21.66 116.76-21.66L116.76-21.66Q118.08-21.66 118.87-20.96 119.67-20.26 119.67-19.24L119.67-19.24Q119.67-18.9 119.62-18.52 119.57-18.14 119.57-17.75L119.57-17.75Q119.57-17.48 119.65-17.14 119.74-16.8 120.01-16.8L120.01-16.8Q120.28-16.8 120.92-16.98 121.57-17.16 122.29-17.41 123.01-17.65 123.62-17.85 124.23-18.04 124.43-18.09L124.43-18.09Q125.35-18.26 126.04-18.24 126.72-18.21 127.31-18.41L127.31-18.41Q127.87-18.55 128.22-18.7 128.58-18.85 128.88-18.97 129.19-19.09 129.52-19.17 129.85-19.24 130.36-19.24L130.36-19.24Q131.19-19.24 131.57-19.06 131.95-18.87 132.14-18.59 132.34-18.31 132.46-17.97 132.58-17.63 132.87-17.31L132.87-17.31Q133.24-16.89 133.64-16.63 134.05-16.36 134.37-16.11 134.7-15.87 134.91-15.58 135.12-15.28 135.12-14.84L135.12-14.84Q135.12-14.5 135.02-14.14 134.92-13.77 134.92-13.26L134.92-13.26Q134.92-12.62 135.07-11.91 135.22-11.21 135.22-10.5ZM145.15-28.44L145.15-28.44Q144.96-27.93 144.39-27.6 143.83-27.27 143.09-27.08 142.34-26.88 141.51-26.79 140.68-26.71 139.95-26.71L139.95-26.71Q138.68-26.71 138.02-27.34 137.36-27.98 137.36-29.71L137.36-29.71Q137.36-30.4 137.57-30.98 137.78-31.57 138.01-32.06 138.24-32.54 138.45-32.91 138.66-33.28 138.66-33.54L138.66-33.54Q138.95-33.76 139.47-33.95 140-34.13 140.54-34.27 141.07-34.4 141.51-34.47 141.95-34.55 142.1-34.55L142.1-34.55Q143.34-34.55 144.15-34.11 144.96-33.67 144.96-33.11L144.96-33.11Q144.96-32.84 144.91-32.53 144.86-32.23 144.86-32.01L144.86-32.01Q144.91-31.37 145.1-30.6 145.3-29.83 145.3-29.2L145.3-29.2Q145.3-28.76 145.15-28.44ZM146.57-1.71L146.57-1.71Q146.37-1.42 145.77-1.09 145.18-0.76 144.42-0.48 143.66-0.2 142.89-0.02 142.12 0.15 141.61 0.15L141.61 0.15Q140.66 0.05 140-0.29 139.34-0.63 138.93-1.22 138.51-1.81 138.32-2.59 138.12-3.37 138.05-4.35L138.05-4.35Q138.05-4.83 138.21-5.33 138.36-5.83 138.36-6.45L138.36-6.45Q138.36-7.13 138.27-7.82 138.17-8.52 138.17-9.2L138.17-9.2Q138.17-9.77 138.21-10.64 138.24-11.52 138.32-12.55 138.39-13.57 138.5-14.65 138.61-15.72 138.73-16.67 138.85-17.63 139-18.37 139.15-19.12 139.32-19.46L139.32-19.46Q139.73-20.31 140.37-20.7 141-21.09 141.76-21.09L141.76-21.09Q142.73-21.09 143.39-20.7 144.05-20.31 144.46-19.58 144.86-18.85 145.03-17.81 145.2-16.77 145.2-15.5L145.2-15.5Q145.2-14.94 145.15-14.4 145.1-13.87 145.1-13.35L145.1-13.35Q145.1-12.33 145.31-11.33 145.52-10.33 145.77-9.4 146.03-8.47 146.25-7.62 146.47-6.76 146.47-6.05L146.47-6.05Q146.47-5.83 146.44-5.55 146.42-5.27 146.42-5.05L146.42-5.05Q146.42-4.15 146.59-3.58 146.76-3 146.76-2.54L146.76-2.54Q146.76-2.1 146.57-1.71ZM169.46-25.9L169.46-25.9Q169.29-25.63 168.82-25.37 168.34-25.1 167.69-24.85 167.05-24.61 166.3-24.39 165.56-24.17 164.86-24.01 164.17-23.85 163.57-23.75 162.97-23.66 162.65-23.66L162.65-23.66Q161.92-23.66 161.55-24.24 161.19-24.83 161.03-25.71 160.87-26.59 160.82-27.6 160.77-28.61 160.64-29.49 160.5-30.37 160.21-30.96 159.92-31.54 159.26-31.54L159.26-31.54Q159.14-31.54 158.7-31.43 158.26-31.32 157.77-31.2L157.77-31.2Q157.18-31.05 156.5-30.86L156.5-30.86Q156.4-30.74 156.35-30.48 156.31-30.22 156.27-29.91 156.23-29.59 156.22-29.28 156.21-28.98 156.21-28.76L156.21-28.76Q156.21-28.3 156.48-27.82 156.75-27.34 157.07-26.82 157.4-26.29 157.69-25.72 157.97-25.15 157.97-24.51L157.97-24.51Q157.97-24.15 158.05-23.89 158.14-23.63 158.23-23.44 158.33-23.24 158.42-23.1 158.5-22.95 158.5-22.8L158.5-22.8Q158.5-22.75 158.47-22.55 158.43-22.34 158.39-22.07 158.36-21.8 158.33-21.52 158.31-21.24 158.31-21.04L158.31-21.04Q158.31-20.78 158.39-20.74 158.48-20.7 158.72-20.7L158.72-20.7Q159.06-20.7 159.65-20.85 160.24-21 160.83-21.15 161.43-21.31 161.95-21.46 162.46-21.61 162.65-21.61L162.65-21.61Q163.75-21.61 164.92-21.4 166.1-21.19 166.85-20.95L166.85-20.95Q167.32-20.78 167.6-20.74 167.88-20.7 168.01-20.5 168.15-20.29 168.18-19.79 168.22-19.29 168.22-18.19L168.22-18.19Q168.22-17.58 168.21-17.11 168.2-16.65 167.91-16.33 167.63-16.02 166.94-15.86 166.24-15.7 164.9-15.7L164.9-15.7Q164.12-15.7 163.62-15.58 163.12-15.45 162.68-15.32 162.24-15.19 161.79-15.06 161.34-14.94 160.65-14.94L160.65-14.94Q160.53-14.94 160.24-15.01 159.94-15.09 159.82-15.09L159.82-15.09Q159.7-15.09 159.63-14.94 159.55-14.79 159.5-14.58 159.46-14.36 159.43-14.11 159.41-13.87 159.41-13.65L159.41-13.65Q159.41-13.06 159.49-12.35 159.58-11.65 159.7-11 159.82-10.35 159.92-9.84 160.02-9.33 160.07-9.11L160.07-9.11Q160.14-8.57 160.14-8 160.14-7.42 160.21-6.91L160.21-6.91Q160.33-6.13 160.54-5.1 160.75-4.08 160.75-3.15L160.75-3.15Q160.75-1.68 159.74-0.9 158.72-0.12 156.21 0.05L156.21 0.05Q155.94 0.07 155.74 0.12 155.55 0.17 155.38 0.23 155.21 0.29 155.04 0.34 154.87 0.39 154.62 0.39L154.62 0.39Q153.67 0.39 152.9-0.05 152.13-0.49 151.61-1.18 151.08-1.88 150.8-2.73 150.52-3.59 150.52-4.44L150.52-4.44Q150.52-5.3 150.59-6.2 150.67-7.1 150.67-8.01L150.67-8.01 150.67-8.96Q150.67-9.4 150.69-9.78 150.71-10.16 150.76-10.55 150.81-10.94 150.9-11.39 150.98-11.84 151.11-12.45L151.11-12.45Q151.11-12.48 151.19-12.73 151.28-12.99 151.39-13.34 151.5-13.7 151.58-14.09 151.67-14.48 151.67-14.79L151.67-14.79Q151.67-15.19 151.48-15.32 151.3-15.45 150.91-15.45L150.91-15.45Q150.71-15.45 150.5-15.43 150.28-15.41 150.01-15.41L150.01-15.41Q149.69-15.41 149.34-15.6 148.98-15.8 148.69-16.14 148.4-16.48 148.2-16.96 148-17.43 148-17.99L148-17.99Q148-18.43 148.29-18.64 148.57-18.85 149.01-18.93 149.45-19.02 149.93-19.06 150.42-19.09 150.86-19.2 151.3-19.31 151.58-19.56 151.86-19.8 151.86-20.29L151.86-20.29Q151.86-20.9 151.76-21.5 151.67-22.09 151.53-22.63 151.4-23.17 151.3-23.62 151.2-24.07 151.2-24.39L151.2-24.39Q151.2-25.56 151.31-26.6 151.42-27.64 151.42-28.71L151.42-28.71Q151.42-29.42 151.31-30.05 151.2-30.69 151.2-31.3L151.2-31.3Q151.2-32.37 151.85-33.23 152.5-34.08 153.49-34.73 154.47-35.38 155.67-35.84 156.87-36.3 157.98-36.6 159.09-36.89 159.97-37.02 160.85-37.16 161.21-37.16L161.21-37.16Q163.12-37.16 164.4-36.88 165.68-36.6 166.52-35.95 167.37-35.3 167.83-34.23 168.29-33.15 168.56-31.59L168.56-31.59Q168.66-31.08 168.85-30.51 169.05-29.93 169.25-29.37 169.44-28.81 169.6-28.23 169.76-27.66 169.76-27.15L169.76-27.15Q169.76-26.81 169.71-26.5 169.66-26.2 169.46-25.9ZM192.75-16.31L192.75-16.31Q192.7-15.94 192.61-15.26 192.51-14.58 192.41-13.89 192.31-13.21 192.24-12.68 192.17-12.16 192.14-12.11L192.14-12.11Q192.02-11.84 191.7-11.55 191.39-11.25 191.19-10.84L191.19-10.84Q191.12-10.64 191.14-10.35 191.17-10.06 191.04-9.79L191.04-9.79Q191-9.59 190.82-9.47 190.65-9.35 190.61-9.16L190.61-9.16Q190.26-8.13 189.95-6.84 189.63-5.54 189.34-4.28 189.04-3.03 188.74-1.93 188.43-0.83 188.14-0.2L188.14-0.2Q188.02 0.05 187.82 0.26 187.63 0.46 187.39 0.68 187.16 0.9 186.94 1.14 186.72 1.37 186.6 1.66L186.6 1.66Q186.53 1.81 186.48 2.12 186.43 2.44 186.31 2.71L186.31 2.71Q186.21 2.91 186.11 3.04 186.02 3.17 185.93 3.3 185.84 3.42 185.8 3.54 185.75 3.66 185.75 3.86L185.75 3.86Q185.75 4 185.77 4.13 185.8 4.25 185.8 4.39L185.8 4.39Q185.8 4.79 185.43 5.22 185.06 5.66 184.46 6.08 183.87 6.49 183.09 6.88 182.3 7.28 181.49 7.57 180.67 7.86 179.88 8.03 179.08 8.2 178.45 8.2L178.45 8.2Q177.49 8.2 176.25 7.64 175 7.08 173.8 6.29 172.59 5.49 171.57 4.68 170.56 3.86 170.05 3.34L170.05 3.34Q169.98 3.27 169.87 2.87 169.76 2.47 169.44 2.1L169.44 2.1Q169.17 1.81 168.9 1.65 168.63 1.49 168.51 1.34L168.51 1.34Q168.05 0.56 168.05-0.15L168.05-0.15Q168.05-0.71 168.28-1.48 168.51-2.25 168.93-3.09 169.34-3.93 169.89-4.74 170.44-5.54 171.07-6.19 171.71-6.84 172.39-7.24 173.08-7.64 173.76-7.64L173.76-7.64Q174.35-7.64 174.87-7.37 175.4-7.1 175.81-6.54L175.81-6.54Q175.93-6.32 175.98-5.92 176.03-5.52 176.25-5.15L176.25-5.15Q176.44-4.81 176.84-4.54 177.23-4.27 177.45-3.91L177.45-3.91Q177.84-3.37 177.98-2.81 178.13-2.25 178.4-1.9L178.4-1.9Q178.59-1.66 178.89-1.35 179.18-1.05 179.5-0.79 179.81-0.54 180.13-0.37 180.45-0.2 180.69-0.2L180.69-0.2Q181.03-0.24 181.28-0.6 181.52-0.95 181.73-1.39 181.94-1.83 182.1-2.28 182.26-2.73 182.4-3L182.4-3Q182.5-3.2 182.73-3.55 182.96-3.91 183.21-4.31 183.45-4.71 183.62-5.11 183.79-5.52 183.79-5.81L183.79-5.81Q183.79-6.13 183.4-6.36 183.01-6.59 182.44-6.8 181.86-7.01 181.23-7.19 180.6-7.37 180.11-7.64L180.11-7.64Q178.62-8.42 177.74-9.28 176.86-10.13 176.27-11.07 175.69-12.01 175.22-13.07 174.76-14.14 174.1-15.36L174.1-15.36Q173.91-15.7 173.64-16.02 173.37-16.33 173.15-16.75L173.15-16.75Q172.9-17.16 172.72-17.53 172.54-17.9 172.38-18.26 172.22-18.63 172.04-19.06 171.86-19.48 171.59-20L171.59-20Q171.42-20.31 171.18-20.7 170.95-21.09 170.73-21.52 170.51-21.95 170.35-22.38 170.19-22.8 170.19-23.19L170.19-23.19Q170.19-23.97 170.73-24.37 171.27-24.76 171.9-24.76L171.9-24.76Q172.76-24.76 173.34-24.38 173.93-24 174.41-23.38 174.88-22.75 175.33-21.95 175.79-21.14 176.4-20.29L176.4-20.29Q176.69-19.9 177.03-19.63 177.37-19.36 177.78-19.15 178.18-18.95 178.62-18.75 179.06-18.55 179.5-18.31L179.5-18.31Q179.69-18.14 179.86-17.9 180.03-17.65 180.25-17.5L180.25-17.5Q180.52-17.36 180.86-17.26 181.21-17.16 181.35-17.04L181.35-17.04Q181.72-16.67 182.1-16.11 182.48-15.55 182.87-14.94 183.26-14.33 183.66-13.71 184.06-13.09 184.48-12.6 184.89-12.11 185.29-11.8 185.7-11.5 186.09-11.5L186.09-11.5Q186.16-11.52 186.25-11.89 186.33-12.26 186.42-12.81 186.5-13.35 186.56-14.03 186.63-14.7 186.69-15.33 186.75-15.97 186.77-16.5 186.8-17.04 186.8-17.31L186.8-17.31Q186.8-17.58 186.72-18.03 186.65-18.48 186.55-18.95 186.45-19.41 186.38-19.81 186.31-20.21 186.31-20.36L186.31-20.36Q186.36-20.48 186.36-20.64 186.36-20.8 186.36-21L186.36-21Q186.36-21.39 186.33-21.84 186.31-22.29 186.31-22.56L186.31-22.56Q186.31-23.12 186.64-23.45 186.97-23.78 187.47-24 187.97-24.22 188.55-24.4 189.14-24.58 189.65-24.85L189.65-24.85Q189.85-24.95 190.17-25.09 190.48-25.22 190.81-25.34 191.14-25.46 191.46-25.56 191.78-25.66 192-25.66L192-25.66Q192.19-25.66 192.39-25.35 192.58-25.05 192.75-24.56 192.92-24.07 193.07-23.49 193.22-22.9 193.33-22.31 193.44-21.73 193.5-21.24 193.56-20.75 193.56-20.46L193.56-20.46Q193.56-20.04 193.45-19.48 193.34-18.92 193.21-18.33 193.07-17.75 192.94-17.21 192.8-16.67 192.75-16.31Z" fill="#c12626" data-fill-palette-color="primary"></path></g></svg></g></svg></g></svg></g></svg></g><g transform="matrix(1,0,0,1,448.5593547323247,0)"><svg viewBox="0 0 186.12518270682938 130.3504935133758" height="130.3504935133758" width="186.12518270682938"><g><svg xmlns="http://www.w3.org/2000/svg" xmlns:xlink="http://www.w3.org/1999/xlink" version="1.1" x="0" y="0" viewBox="2 16.859 95.334 66.76599999999999" enable-background="new 0 0 100 100" xml:space="preserve" height="130.3504935133758" width="186.12518270682938" class="icon-icon-0" data-fill-palette-color="accent" id="icon-0"><g fill="#fe6e63" data-fill-palette-color="accent"><path d="M71.546 26.437L66.638 16.859H32.695L27.787 26.437H2V82.768H32.89V82.696A28.65 28.65 0 0 1 24.574 73.22H11.548V35.985H33.623L38.531 26.407H60.802L65.711 35.985H87.785V73.219H74.759A28.7 28.7 0 0 1 66.444 82.695V82.767H97.334V26.437z" fill="#fe6e63" data-fill-palette-color="accent"></path><path d="M73.676 59.616C73.676 46.377 62.905 35.606 49.667 35.606 36.428 35.606 25.658 46.377 25.658 59.616S36.428 83.625 49.667 83.625C62.905 83.625 73.676 72.855 73.676 59.616M49.667 74.077C41.693 74.077 35.205 67.589 35.205 59.616S41.693 45.155 49.667 45.155 64.128 51.642 64.128 59.616 57.641 74.077 49.667 74.077" fill="#fe6e63" data-fill-palette-color="accent"></path></g></svg></g></svg></g></svg></g><defs></defs></svg><rect width="395.52" height="81.23126396371832" fill="none" stroke="none" visibility="hidden"></rect></g></svg></g></svg>